<svg width="39" height="38" viewBox="0 0 39 38" fill="none" xmlns="http://www.w3.org/2000/svg">
<path fill-rule="evenodd" clip-rule="evenodd" d="M19.8748 35.6795C29.0867 35.6795 36.5545 28.2117 36.5545 18.9998C36.5545 9.7878 29.0867 2.32001 19.8748 2.32001C10.6628 2.32001 3.19501 9.7878 3.19501 18.9998C3.19501 28.2117 10.6628 35.6795 19.8748 35.6795ZM19.8748 37.0386C29.8373 37.0386 37.9136 28.9623 37.9136 18.9998C37.9136 9.0372 29.8373 0.960938 19.8748 0.960938C9.9122 0.960938 1.83594 9.0372 1.83594 18.9998C1.83594 28.9623 9.9122 37.0386 19.8748 37.0386Z" fill="#2E2E2E"/>
<path d="M27.419 29.0582C22.7488 32.5646 16.2789 32.3935 11.8005 28.645C7.32221 24.8965 6.01474 18.5578 8.64434 13.3431C8.68719 13.2652 8.7139 13.1795 8.72288 13.091C8.73187 13.0026 8.72293 12.9132 8.69662 12.8283C8.67031 12.7434 8.62716 12.6646 8.56974 12.5968C8.51232 12.5289 8.44181 12.4733 8.36243 12.4332C8.28304 12.3932 8.19641 12.3696 8.10769 12.3638C8.01897 12.3579 7.92999 12.3701 7.84606 12.3994C7.76213 12.4287 7.68497 12.4747 7.61919 12.5345C7.55341 12.5943 7.50035 12.6668 7.46319 12.7475C6.48173 14.6852 5.97332 16.8279 5.97961 19C5.97961 24.2634 8.95335 29.075 13.6611 31.4289C18.3688 33.7827 24.0024 33.2747 28.2131 30.1167C28.3535 30.0114 28.4463 29.8547 28.4711 29.681C28.4959 29.5072 28.4506 29.3308 28.3453 29.1904C28.24 29.05 28.0833 28.9573 27.9096 28.9325C27.7359 28.9076 27.5594 28.9529 27.419 29.0582ZM19.8755 5.1043C16.8675 5.09585 13.9393 6.07191 11.538 7.88349C11.4011 7.99005 11.3116 8.14609 11.2886 8.31801C11.2656 8.48994 11.311 8.66401 11.4151 8.80278C11.5192 8.94155 11.6736 9.03391 11.8451 9.06C12.0165 9.08609 12.1914 9.04381 12.332 8.94227C17.0089 5.43999 23.482 5.6202 27.9567 9.3773C32.4315 13.1344 33.7291 19.4786 31.0889 24.691C31.0356 24.7946 31.0107 24.9104 31.0166 25.0268C31.0224 25.1431 31.0589 25.2558 31.1224 25.3536C31.1858 25.4513 31.2739 25.5305 31.3777 25.5833C31.4816 25.636 31.5976 25.6604 31.7139 25.654C31.8302 25.6476 31.9428 25.6106 32.0402 25.5468C32.1376 25.4829 32.2165 25.3945 32.2688 25.2905C33.2622 23.3428 33.7774 21.1866 33.7715 19.0002C33.7631 11.3292 27.5466 5.11268 19.8755 5.1043Z" fill="#2E2E2E"/>
<path d="M28.2911 14.3125L24.1406 13.6854C24.0241 13.6652 23.9143 13.6167 23.8208 13.5442C23.7274 13.4717 23.6531 13.3774 23.6045 13.2696L21.7334 9.32908C21.5723 8.97093 21.3112 8.66694 20.9814 8.45367C20.6517 8.24041 20.2673 8.12695 19.8746 8.12695C19.4819 8.12695 19.0975 8.24041 18.7677 8.45367C18.438 8.66694 18.1768 8.97093 18.0157 9.32908L16.1446 13.2696C16.0961 13.3775 16.0218 13.4718 15.9283 13.5442C15.8349 13.6167 15.7251 13.6652 15.6086 13.6854L11.4581 14.3125C11.0762 14.3728 10.7187 14.5382 10.4256 14.7902C10.1324 15.0422 9.91523 15.3708 9.79827 15.7392C9.66757 16.1228 9.64607 16.5351 9.73618 16.9302C9.82629 17.3253 10.0245 17.6875 10.3085 17.9765L13.2843 20.9938C13.3758 21.0885 13.4437 21.2034 13.4823 21.3293C13.5209 21.4552 13.5292 21.5884 13.5065 21.7181L12.7999 25.9983C12.729 26.4006 12.7735 26.8146 12.9281 27.1926C13.0827 27.5706 13.3412 27.8971 13.6736 28.1344C13.9813 28.355 14.3451 28.4839 14.723 28.5063C15.1009 28.5286 15.4774 28.4435 15.809 28.2608L19.5593 26.211C19.6557 26.1572 19.7642 26.129 19.8745 26.129C19.9849 26.129 20.0934 26.1572 20.1898 26.211L23.9401 28.2608C24.2716 28.4437 24.6481 28.529 25.0261 28.5066C25.404 28.4843 25.7679 28.3552 26.0755 28.1344C26.4079 27.8971 26.6664 27.5706 26.821 27.1926C26.9756 26.8146 27.0201 26.4006 26.9492 25.9983L26.2426 21.7181C26.2199 21.5886 26.228 21.4557 26.2663 21.33C26.3045 21.2043 26.3718 21.0894 26.4627 20.9945L29.4406 17.9772C29.7247 17.6881 29.9229 17.3257 30.013 16.9305C30.1031 16.5354 30.0816 16.1229 29.9509 15.7392C29.8339 15.3708 29.6167 15.0422 29.3236 14.7902C29.0304 14.5382 28.6729 14.3728 28.2911 14.3125ZM28.4732 17.0199L25.496 20.0372C25.2541 20.285 25.0741 20.5865 24.9708 20.9171C24.8675 21.2477 24.8437 21.598 24.9015 21.9395L25.6081 26.2198C25.6364 26.3706 25.6215 26.5265 25.5651 26.6692C25.5087 26.812 25.4132 26.936 25.2895 27.0269C25.1897 27.1005 25.0706 27.1437 24.9468 27.1511C24.823 27.1586 24.6997 27.1301 24.5917 27.069L20.8414 25.0193C20.5451 24.8565 20.2126 24.7712 19.8746 24.7712C19.5366 24.7712 19.204 24.8565 18.9078 25.0193L15.1574 27.069C15.0495 27.1303 14.9262 27.1589 14.8023 27.1514C14.6785 27.1439 14.5594 27.1007 14.4597 27.0269C14.336 26.936 14.2404 26.8121 14.184 26.6693C14.1277 26.5265 14.1128 26.3706 14.141 26.2198L14.8477 21.9395C14.9049 21.5987 14.881 21.2492 14.7778 20.9193C14.6747 20.5895 14.4951 20.2886 14.2539 20.0412L11.276 17.0226C11.1688 16.9115 11.0945 16.7729 11.0613 16.6222C11.028 16.4714 11.0372 16.3144 11.0878 16.1686C11.1261 16.0385 11.2002 15.9218 11.3015 15.8318C11.4029 15.7417 11.5275 15.6818 11.6612 15.659L15.8117 15.032C16.1488 14.9793 16.4677 14.8443 16.7402 14.6391C17.0128 14.4338 17.2306 14.1646 17.3743 13.8552L19.2454 9.91467C19.2971 9.78956 19.3847 9.68258 19.4972 9.60731C19.6096 9.53204 19.7419 9.49186 19.8773 9.49186C20.0126 9.49186 20.1449 9.53204 20.2574 9.60731C20.3699 9.68258 20.4575 9.78956 20.5091 9.91467L22.3802 13.8552C22.524 14.1646 22.7418 14.4338 23.0144 14.6391C23.2869 14.8443 23.6058 14.9793 23.9429 15.032L28.0934 15.659C28.2271 15.6818 28.3517 15.7417 28.453 15.8318C28.5544 15.9218 28.6285 16.0385 28.6668 16.1686C28.7163 16.3148 28.7243 16.4717 28.6902 16.6222C28.656 16.7727 28.5809 16.9094 28.4732 17.0199Z" fill="#2E2E2E"/>
</svg>
